<svg xmlns="http://www.w3.org/2000/svg" height="800" width="1200" viewBox="-5.934735 -8.174625 51.43437 49.04775"><defs><clipPath clipPathUnits="userSpaceOnUse" id="j"><path d="M0 0h595.275v841.89H0z"/></clipPath><clipPath clipPathUnits="userSpaceOnUse" id="k"><path d="M-1.0002 842.89H596.276V-1.0001H-1.0002z"/></clipPath><clipPath clipPathUnits="userSpaceOnUse" id="l"><path d="M0 0h595.276v841.89H0z"/></clipPath><clipPath clipPathUnits="userSpaceOnUse" id="m"><path d="M1305.885 0H710.61v841.89h595.275z"/></clipPath><clipPath clipPathUnits="userSpaceOnUse" id="p"><path d="M0 0h595.276v841.89H0z"/></clipPath><clipPath clipPathUnits="userSpaceOnUse" id="r"><path d="M473.175 84.82c-.016 0-2.008-.078-2.069-.079-4.661-.187-8.609-.484-11.827-.799h-.001c.86-2.854 2.606-5.232 5.017-6.844 2.188-1.472 4.911-2.306 8.011-2.306 6.877 0 13.671 4.144 17.536 10.065-1.48.017-5.184.044-8.916.044-2.923 0-5.856-.021-7.751-.081"/></clipPath><clipPath clipPathUnits="userSpaceOnUse" id="a"><path d="M459.278 84.9009h30.564V74.7916h-30.564z"/></clipPath><clipPath clipPathUnits="userSpaceOnUse" id="b"><path d="M459.278 84.9009h30.563v-10.108h-30.563z"/></clipPath><clipPath clipPathUnits="userSpaceOnUse" id="s"><path d="M459.278 84.9009h30.564V74.7916h-30.564z"/></clipPath><clipPath clipPathUnits="userSpaceOnUse" id="v"><path d="M462.623 99.4c2.84.271 6.552.482 10.187.542.711.016 2.074.305 2.838 1.438 1.427 2.119 2.83 4.252 4.819 4.963.037.014.07.029.106.049 3.031 1.154 7.038-1.663 9.806-6.541h1.922c-1.793 5.135-6.548 8.599-12.845 8.599-6.483 0-12.882-3.681-16.833-9.05"/></clipPath><clipPath clipPathUnits="userSpaceOnUse" id="d"><path d="M459.713 117.987h35.493V89.8658h-35.493z"/></clipPath><clipPath clipPathUnits="userSpaceOnUse" id="e"><path d="M459.713 117.987h35.493V89.8659h-35.493z"/></clipPath><clipPath clipPathUnits="userSpaceOnUse" id="w"><path d="M459.713 117.987h35.493V89.8658h-35.493z"/></clipPath><clipPath clipPathUnits="userSpaceOnUse" id="z"><path d="M475.927 84.874c-.702-.582-1.52-1.433-1.884-2.205-2.512-4.239-3.381-8.388-11.124-2.047 0 0-1.233.11-2.074-.05.855-1.297 1.939-2.412 3.217-3.315.09-.06.172-.113.238-.159.144-.106.293-.193.438-.285 2.106-1.288 4.673-2.021 7.568-2.021 6.877 0 13.671 4.144 17.536 10.065-.66.003-1.747.017-3.076.023-1.69.01-3.805.015-5.895.015-1.745 0-3.479-.002-4.944-.021"/></clipPath><clipPath clipPathUnits="userSpaceOnUse" id="g"><path d="M455.744 98.8326h39.2V60.3482h-39.2z"/></clipPath><clipPath clipPathUnits="userSpaceOnUse" id="h"><path d="M455.744 98.8329h39.2v-38.484h-39.2z"/></clipPath><clipPath clipPathUnits="userSpaceOnUse" id="A"><path d="M455.744 98.8326h39.2V60.3482h-39.2z"/></clipPath><clipPath clipPathUnits="userSpaceOnUse" id="E"><path d="M0 0h595.276v841.89H0z"/></clipPath><linearGradient x1="0" y1="0" x2="1" y2="0" gradientUnits="userSpaceOnUse" gradientTransform="matrix(.38962 -2.20969 2.20969 .38962 454.964 91.274)" spreadMethod="pad" id="n"><stop offset="0" stop-color="#d75e15"/><stop offset="1" stop-color="#f5aa06"/></linearGradient><linearGradient x1="0" y1="0" x2="1" y2="0" gradientUnits="userSpaceOnUse" gradientTransform="rotate(-45 363.0352 -505.3552) scale(32.1344)" spreadMethod="pad" id="o"><stop offset="0" stop-color="#fece56"/><stop offset=".1963" stop-color="#f5a906"/><stop offset="1" stop-color="#e8600d"/></linearGradient><linearGradient x1="0" y1="0" x2="1" y2="0" gradientUnits="userSpaceOnUse" gradientTransform="rotate(-20 500.2807 -1257.9216) scale(39.95274)" spreadMethod="pad" id="q"><stop offset="0" stop-color="#a6a4a1"/><stop offset=".2883" stop-color="#fff"/><stop offset="1" stop-color="#a6a4a1"/></linearGradient><linearGradient x1="0" y1="0" x2="1" y2="0" gradientUnits="userSpaceOnUse" gradientTransform="rotate(90 199.8834 274.6762) scale(10.1093)" spreadMethod="pad" id="c"><stop offset="0" stop-color="#706f6f"/><stop offset=".4969"/><stop offset="1" stop-color="#fff"/></linearGradient><linearGradient x1="0" y1="0" x2="1" y2="0" gradientUnits="userSpaceOnUse" gradientTransform="rotate(90 199.884 274.6756) scale(10.1093)" spreadMethod="pad" id="u"><stop offset="0" stop-color="#891725"/><stop offset=".4969" stop-color="#b3182e"/><stop offset="1" stop-color="#891725"/></linearGradient><linearGradient x1="0" y1="0" x2="1" y2="0" gradientUnits="userSpaceOnUse" gradientTransform="rotate(-20 539.6225 -1266.808) scale(27.74607)" spreadMethod="pad" id="f"><stop offset="0" stop-color="#fff"/><stop offset=".0859" stop-color="#fff"/><stop offset="1" stop-color="#282727"/></linearGradient><linearGradient x1="0" y1="0" x2="1" y2="0" gradientUnits="userSpaceOnUse" gradientTransform="rotate(-20 539.6306 -1266.7694) scale(27.74607)" spreadMethod="pad" id="y"><stop offset="0" stop-color="#fece56"/><stop offset=".0859" stop-color="#fece56"/><stop offset="1" stop-color="#f1990d"/></linearGradient><linearGradient x1="0" y1="0" x2="1" y2="0" gradientUnits="userSpaceOnUse" gradientTransform="rotate(53 162.1879 507.8012) scale(21.58677)" spreadMethod="pad" id="i"><stop offset="0"/><stop offset=".0123"/><stop offset=".638" stop-color="#c6c6c6"/><stop offset="1" stop-color="#fff"/></linearGradient><linearGradient x1="0" y1="0" x2="1" y2="0" gradientUnits="userSpaceOnUse" gradientTransform="rotate(53 162.1823 507.8121) scale(21.58677)" spreadMethod="pad" id="C"><stop offset="0" stop-color="#df0637"/><stop offset=".0123" stop-color="#df0637"/><stop offset=".638" stop-color="#941823"/><stop offset="1" stop-color="#961824"/></linearGradient><linearGradient x1="0" y1="0" x2="1" y2="0" gradientUnits="userSpaceOnUse" gradientTransform="matrix(0 1.707 -1.707 0 493.7242 83.149)" spreadMethod="pad" id="D"><stop offset="0" stop-color="#d7d8d7"/><stop offset=".0061" stop-color="#d7d8d7"/><stop offset="1" stop-color="#808381"/></linearGradient><mask maskUnits="userSpaceOnUse" x="0" y="0" width="1" height="1" id="t"><g clip-path="url(#a)"><path d="M459.278 84.901h30.563V74.793h-30.563z"/><g clip-path="url(#b)"><path d="M489.841 84.901h-30.563V74.793h30.563z" fill="url(#c)"/></g></g></mask><mask maskUnits="userSpaceOnUse" x="0" y="0" width="1" height="1" id="x"><g clip-path="url(#d)"><path d="M459.713 117.987h35.493V89.866h-35.493z"/><g clip-path="url(#e)"><path d="M459.713 100.463l29.115-10.597 6.378 17.524-29.112 10.597z" fill="url(#f)"/></g></g></mask><mask maskUnits="userSpaceOnUse" x="0" y="0" width="1" height="1" id="B"><g clip-path="url(#g)"><path d="M455.744 98.833h39.2V60.349h-39.2z"/><g clip-path="url(#h)"><path d="M455.744 78.126l23.599-17.777 15.601 20.705-23.6 17.779z" fill="url(#i)"/></g></g></mask></defs><g clip-path="url(#j)" transform="matrix(.6406 0 0 -.6406 -284.611 69.4736)"><g clip-path="url(#k)"><g clip-path="url(#l)"><g clip-path="url(#m)"><path d="M1393.4723 167.5381c-127.56 95.3-343.277 129.255-502.622 129.255h-430.187v34.461h430.187c95.425 0 192.184-11.001 279.813-31.813 101.007-23.988 182.91-59.079 243.434-104.296z" fill="#eeeae7"/><path d="M1398.768 296.793H460.664v34.461h938.104z" fill="#f8aa22"/><path d="M460.664 296.792h276.943v34.461H460.664z" fill="#e0dbd5"/></g></g><path d="M459.012 91.622c-.965-.092-2.491-.213-3.616-.358-1.969-.255-3.754-.517-3.909-.694-.402-.483 2.294-.836 6.404-.89.282-.003.574-.003.87-.005.062.63.16 1.275.3 1.932l.001.016-.001.003c-.022-.002-.035-.004-.049-.004" fill="url(#n)"/><path d="M462.623 99.4s-9.2-.657-9.684-1.473c-1.456-2.782-1.486-7.435-1.486-7.435l.005.016c.004.018.02.036.029.062.155.177 1.949.439 3.911.694 1.128.145 2.649.266 3.614.358.014 0 .028.002.05.004v-.002c3.2.315 9.296.758 12.777.847 8.536.238 15.905.169 21.011-.062 1.479 8.934-4.377 16.041-13.394 16.041-6.483 0-12.882-3.675-16.833-9.05" fill="url(#o)"/><g clip-path="url(#p)"><path d="M489.8415 84.8565c-2.633.023-12.348.098-16.667-.035-.016-.002-2.008-.079-2.068-.08-4.661-.188-8.609-.485-11.827-.795l-.001-.004c1.635-5.434 6.502-9.15 13.027-9.15 6.879 0 13.671 4.144 17.536 10.064" fill="#e21f33"/></g><path d="M471.839 92.476c-3.481-.09-9.577-.537-12.777-.85-.072-.354-.184-.934-.274-1.705 0 0-.004-.031-.008-.049-.027-.263-.05-.525-.067-.785 0-.014-.003-.035-.003-.053-.018-.248-.021-.502-.023-.754-.007-.157.002-.321.005-.471 0-.132 0-.263.003-.392.015-.275.033-.556.058-.829.009-.073.023-.151.031-.229.025-.207.053-.419.09-.629.012-.086.023-.164.038-.254.039-.197.078-.397.119-.593.016-.081.037-.155.06-.233.047-.201.102-.407.16-.606.006-.034.017-.062.027-.102 3.218.315 7.17.612 11.832.799.057.001 2.049.079 2.065.079 4.321.135 14.034.06 16.671.037.416-.004.671-.009.671-.009 2.207-.03 3.111-.048 5.405-.173 1.065-.059 2.824-.125 2.924-.354v-.007c-.004-.007-.008-.015-.012-.022l.012.02v.002c1.44 2.69 1.467 7.122 1.467 7.122.072.389-2.708.765-7.46.973-2.916.139-6.558.214-10.74.214-3.147 0-6.6-.04-10.274-.147" fill="url(#q)"/><g clip-path="url(#r)"><g clip-path="url(#s)" mask="url(#t)"><path d="M459.278 74.793h30.563v10.108h-30.563z" fill="url(#u)"/></g></g><g clip-path="url(#v)"><g clip-path="url(#w)" mask="url(#x)"><path d="M459.713 100.463l29.115-10.597 6.378 17.524-29.111 10.597z" fill="url(#y)"/></g></g><g clip-path="url(#z)"><g clip-path="url(#A)" mask="url(#B)"><path d="M455.744 78.126l23.599-17.777 15.601 20.705-23.598 17.779z" fill="url(#C)"/></g></g><path d="M489.842 84.857a22.318 22.318 0 00-1.241-1.708h.004c6.076.182 10.071.614 10.243 1.163v.009c-.1.229-1.855.295-2.917.354-2.3.125-3.203.143-5.414.173 0 0-.252.005-.675.009m-.008 0h.008zm-.005 0h.005z" fill="url(#D)"/><g clip-path="url(#E)"><path d="M487.0466 67.0869l-.213-.996c-.128-.463-.467-.786-.969-.793h-.222c-2.007-.008-2.131-.553-2.522-2.422l-.481-2.203c-.584-2.818-3.119-2.875-3.338-2.875h-5.089l.214 1.002c.133.486.503.76.967.795h1.221c2.007.006 2.138.552 2.519 2.41l.481 2.213c.605 2.807 3.663 2.869 4.133 2.869zm-25.892-3.799h4.226l-.214-.972c-.076-.434-.523-.799-.959-.799h-3.429l-.414-1.922h4.23l-.225-1.031c-.08-.422-.519-.766-.949-.766h-6.073c-.186.01-.88.078-.77.851l1.632 7.641c.094.442.525.797.965.797l7.022.001-.218-.989c-.093-.449-.525-.801-.962-.801h-3.43zm41.673-3.693h3.219l-.221-1.031c-.084-.422-.525-.766-.954-.766h-5.061c-.184.01-.879.078-.762.851l1.627 7.641c.092.442.523.797.962.797l2.796.001zm-55.113-1.797h-2.655c-.179.01-.873.078-.763.851l1.633 7.641c.091.442.526.797.964.797l4.492.001c.652 0 1.215-.034 1.703-.114.496-.074.922-.199 1.287-.383.355-.182.598-.359.839-.724.248-.364.314-.639.347-1.085.078-1.07-.389-1.79-1.334-2.394-.877-.461-2.088-.537-2.371-.545 0 0-.3-.068.044-.151 0 0 .418-.109.761-.421.747-.582 1.296-1.198 2.978-3.473h-3.979s-.687 1.377-2.105 3.43c-.322.457-.836.375-1.027.396zm4.316 6.816c-.022.377-.183.645-.479.797-.295.16-.719.235-1.278.235h-.88l-.539-2.497h.88c.758 0 1.34.122 1.744.385.4.262.586.621.552 1.08m15.242-6.816s-.936-.035-.81.851l1.632 7.641c.094.443.525.798.967.798h3.939c.721 0 1.354-.044 1.893-.129.541-.081 1.023-.218 1.424-.417.395-.197.706-.454.933-.771.219-.317.352-.791.377-1.262.074-1.07-.421-1.942-1.467-2.594-1.048-.658-2.552-.908-4.504-.908h-1.088l-.685-3.209zm6.836 6.783c-.02.36-.197.627-.518.801-.329.18-.796.264-1.416.264h-.625l-.589-2.782h.496c.871 0 1.537.149 2.004.444.469.299.681.72.648 1.273m16.688-.521c-1.201-1.373-1.51-3.16-.687-3.991.816-.832 2.457-.398 3.654.977 1.201 1.367 1.515 3.154.692 3.988-.818.83-2.454.396-3.659-.974m-4.615-3.239c-.496 2.662 1.945 5.62 5.035 6.467 3.584.723 6.609-.648 7.153-3.404.378-2.69-1.694-5.506-5.166-6.317-3.29-.617-6.458.567-7.022 3.254" fill="#1a213e"/></g></g></g></svg>